<svg width="15" height="19" viewBox="0 0 15 19" fill="none" xmlns="http://www.w3.org/2000/svg">
<path fill-rule="evenodd" clip-rule="evenodd" d="M2.26453 5C2.26453 2.238 4.50253 0 7.26453 0C10.0265 0 12.2645 2.238 12.2645 5V8H12.6645C13.5445 8 14.2645 8.72 14.2645 9.6V16.6C14.2645 17.92 13.1845 19 11.8645 19H2.66453C1.34453 19 0.264526 17.92 0.264526 16.6V9.6C0.264526 8.72 0.984526 8 1.86453 8H2.26453V5ZM10.2645 5V8H4.26453V5C4.26453 3.342 5.60653 2 7.26453 2C8.92253 2 10.2645 3.342 10.2645 5ZM7.26453 10.25C6.86687 10.2496 6.48092 10.3846 6.17026 10.6329C5.8596 10.8811 5.64275 11.2278 5.55542 11.6157C5.4681 12.0037 5.51551 12.4098 5.68984 12.7672C5.86418 13.1246 6.15504 13.412 6.51453 13.582V16C6.51453 16.1989 6.59354 16.3897 6.7342 16.5303C6.87485 16.671 7.06561 16.75 7.26453 16.75C7.46344 16.75 7.6542 16.671 7.79486 16.5303C7.93551 16.3897 8.01453 16.1989 8.01453 16V13.582C8.37401 13.412 8.66488 13.1246 8.83921 12.7672C9.01355 12.4098 9.06096 12.0037 8.97363 11.6157C8.88631 11.2278 8.66945 10.8811 8.35879 10.6329C8.04813 10.3846 7.66219 10.2496 7.26453 10.25Z" fill="black"/>
</svg>
