<svg width="28" height="28" viewBox="0 0 28 28" fill="none" xmlns="http://www.w3.org/2000/svg">
<path d="M8.16675 11.2782C8.16675 10.453 8.49457 9.6616 9.07809 9.07809C9.6616 8.49457 10.453 8.16675 11.2782 8.16675H21.3886C21.7972 8.16675 22.2018 8.24723 22.5793 8.4036C22.9568 8.55996 23.2998 8.78916 23.5887 9.07809C23.8777 9.36701 24.1069 9.71002 24.2632 10.0875C24.4196 10.465 24.5001 10.8696 24.5001 11.2782V21.3886C24.5001 21.7972 24.4196 22.2018 24.2632 22.5793C24.1069 22.9568 23.8777 23.2998 23.5887 23.5887C23.2998 23.8777 22.9568 24.1069 22.5793 24.2632C22.2018 24.4196 21.7972 24.5001 21.3886 24.5001H11.2782C10.8696 24.5001 10.465 24.4196 10.0875 24.2632C9.71002 24.1069 9.36701 23.8777 9.07809 23.5887C8.78916 23.2998 8.55996 22.9568 8.4036 22.5793C8.24723 22.2018 8.16675 21.7972 8.16675 21.3886V11.2782Z" stroke="white" stroke-width="2" stroke-linecap="round" stroke-linejoin="round"/>
<path d="M4.68067 19.5265C4.3225 19.323 4.02459 19.0283 3.81722 18.6724C3.60984 18.3164 3.5004 17.9119 3.5 17.5V5.83333C3.5 4.55 4.55 3.5 5.83333 3.5H17.5C18.375 3.5 18.851 3.94917 19.25 4.66667" stroke="white" stroke-width="2" stroke-linecap="round" stroke-linejoin="round"/>
</svg>
